<svg xmlns="http://www.w3.org/2000/svg" width="43.875" height="38.438" viewBox="0 0 43.875 38.438">
  <defs>
    <style>
      .cls-1 {
        fill: #282828;
        stroke: #282828;
        stroke-width: 2px;
        fill-rule: evenodd;
      }
    </style>
  </defs>
  <path class="cls-1" d="M2.12,23.351L22.431,4.808,42.187,23.349l0.479-.492L22.671,4.085a0.338,0.338,0,0,0-.474,0L1.648,22.855Zm5.07-.155V40.1a0.339,0.339,0,0,0,.342.342H18.083a0.341,0.341,0,0,0,.241-0.1,0.346,0.346,0,0,0,.1-0.242V30.255h7.834V40.1a0.34,0.34,0,0,0,.342.342H37.335a0.336,0.336,0,0,0,.241-0.1,0.348,0.348,0,0,0,.1-0.242V23.2H36.995V39.759H26.939V29.913a0.35,0.35,0,0,0-.1-0.245,0.339,0.339,0,0,0-.241-0.1H18.083a0.345,0.345,0,0,0-.243.1,0.361,0.361,0,0,0-.1.245v9.846H7.871V23.2H7.189Z" transform="translate(-0.219 -3)"/>
</svg>
